<?xml version="1.0" standalone="no"?>
<!DOCTYPE svg PUBLIC "-//W3C//DTD SVG 20010904//EN"
 "http://www.w3.org/TR/2001/REC-SVG-20010904/DTD/svg10.dtd">
<svg version="1.0" xmlns="http://www.w3.org/2000/svg"
 width="1024.000000pt" height="1024.000000pt" viewBox="0 0 1024.000000 1024.000000"
 preserveAspectRatio="xMidYMid meet">

<g transform="translate(0.000000,1024.000000) scale(0.100000,-0.100000)"
fill="#000000" stroke="none">
<path d="M4900 9084 c-652 -37 -1248 -216 -1780 -535 -907 -543 -1582 -1433
-1831 -2413 -102 -401 -134 -693 -126 -1126 6 -284 16 -390 58 -630 114 -653
402 -1259 857 -1805 116 -139 413 -428 562 -548 571 -459 1223 -734 1975 -836
639 -86 1288 -11 1915 222 652 242 1287 718 1746 1307 463 595 721 1254 795
2035 15 156 15 607 0 760 -89 914 -485 1757 -1131 2406 -429 431 -947 753
-1530 950 -303 103 -589 164 -925 198 -111 11 -483 21 -585 15z m300 -1594
c422 -31 772 -135 1089 -322 447 -264 753 -648 929 -1163 108 -315 152 -712
121 -1096 -48 -609 -261 -1128 -614 -1498 -329 -345 -730 -545 -1270 -634
-126 -20 -162 -21 -1237 -24 l-1107 -4 -33 30 -33 29 0 2317 0 2317 33 29 32
29 978 0 c553 0 1036 -4 1112 -10z"/>
<path d="M4193 6570 c-12 -5 -26 -18 -32 -29 -8 -14 -11 -453 -11 -1435 l0
-1415 24 -28 24 -28 424 -3 c263 -2 459 1 520 8 364 41 665 227 874 541 173
259 253 556 254 937 0 187 -14 309 -54 462 -121 463 -422 802 -836 940 -158
53 -238 60 -725 59 -242 0 -450 -4 -462 -9z"/>
</g>
</svg>
